#define amd_width 16
#define amd_height 16
static unsigned char amd_bits[] = {
   0x00, 0x00, 0xf8, 0x7f, 0xf0, 0x7f, 0xe0, 0x7f, 0xc0, 0x7f, 0x00, 0x78,
   0x20, 0x78, 0x30, 0x78, 0x38, 0x78, 0x3c, 0x78, 0xfc, 0x73, 0xfc, 0x61,
   0xfc, 0x40, 0x7c, 0x00, 0x00, 0x00, 0x00, 0x00 };
