#define mem_width 16
#define mem_height 16
static unsigned char mem_bits[] = {
   0x00, 0x00, 0xf8, 0x1f, 0x0c, 0x30, 0x4e, 0x74, 0xa8, 0x16, 0xac, 0x34,
   0x4e, 0x74, 0x08, 0x10, 0x4c, 0x32, 0x6e, 0x75, 0x48, 0x15, 0x4c, 0x32,
   0x0e, 0x70, 0xf8, 0x1f, 0xf0, 0x0f, 0x00, 0x00 };
