#define temp_width 16
#define temp_height 16
static unsigned char temp_bits[] = {
   0x80, 0x00, 0x40, 0x01, 0x40, 0x01, 0xc0, 0x01, 0x40, 0x01, 0xc0, 0x01,
   0x40, 0x01, 0xc0, 0x01, 0xc0, 0x01, 0xc0, 0x01, 0xe0, 0x03, 0xb0, 0x07,
   0xd0, 0x07, 0xf0, 0x07, 0xe0, 0x03, 0xc0, 0x01 };
