#define time_width 16
#define time_height 16
static unsigned char time_bits[] = {
   0x00, 0x00, 0xf8, 0x3f, 0x10, 0x10, 0x10, 0x10, 0xe0, 0x08, 0xe0, 0x0f,
   0xc0, 0x07, 0x80, 0x03, 0x80, 0x02, 0x40, 0x05, 0x20, 0x08, 0x20, 0x09,
   0x90, 0x13, 0xf0, 0x1f, 0xf8, 0x3f, 0x00, 0x00 };
