#define radeon_width 16
#define radeon_height 16
static unsigned char radeon_bits[] = {
   0x00, 0x00, 0x00, 0x00, 0x02, 0x80, 0x02, 0x80, 0x06, 0xc0, 0x0e, 0xe0,
   0x0e, 0xe0, 0x1e, 0xf0, 0x3e, 0xf8, 0x3c, 0x78, 0x78, 0x3c, 0x60, 0x0c,
   0xc0, 0x06, 0x00, 0x00, 0x00, 0x00, 0x00, 0x00 };
